#!OML:ASF H:\Terrain\Walking\May29\JustinRory\Justin.ASF
:FULLY-SPECIFIED
:DEGREES
2021
root 6.44424 17.9826 6.92505 -176.921 7.69653 182.16
lowerback -1.54254 1.71252 -1.87421
upperback 1.26866 2.42614 -1.88289
thorax 2.17075 1.22168 -0.798575
lowerneck -11.9568 -3.78898 -12.9212
upperneck 19.5391 -2.08395 1.12437
head 8.27168 -1.56774 2.31149
rclavicle 2.19657e-014 4.13472e-014
rhumerus -11.5356 5.70858 -82.0599
rradius 103.91
rwrist -22.0677
rhand -25.6776 27.3287
rfingers 7.12502
rthumb 0.857135 -2.64931
lclavicle 2.19657e-014 4.13472e-014
lhumerus 0.216599 -6.68618 74.1793
lradius 98.4653
lwrist 17.9352
lhand -1.87519 36.5551
lfingers 7.12502
lthumb 23.7931 65.1018
rfemur -1.91447 3.36987 11.9906
rtibia 11.4367
rfoot -7.86152 -10.6758
rtoes -4.58431
lfemur -8.31149 3.81708 -23.0025
ltibia 23.6852
lfoot -13.9399 0.142349
ltoes -5.15547
2022
root 6.44512 17.9936 6.92518 -176.841 7.64861 182.275
lowerback -1.65629 1.5714 -1.90267
upperback 1.14746 2.22834 -1.75201
thorax 2.10329 1.1188 -0.653754
lowerneck -11.6142 -3.65143 -13.0256
upperneck 19.4429 -1.90599 1.09788
head 8.16706 -1.48268 2.34221
rclavicle 2.65378e-014 -5.24792e-014
rhumerus -11.3156 6.09745 -82.0614
rradius 103.193
rwrist -22.0545
rhand -25.1282 27.8864
rfingers 7.12502
rthumb 1.38776 -2.08885
lclavicle 2.65378e-014 -5.24792e-014
lhumerus 0.0530388 -6.24634 74.5256
lradius 97.8496
lwrist 16.9752
lhand -1.96138 35.8163
lfingers 7.12502
lthumb 23.7104 64.3738
rfemur -2.01836 3.22168 12.1169
rtibia 11.4852
rfoot -7.87217 -10.5796
rtoes -5.33064
lfemur -8.33488 3.53935 -22.8669
ltibia 23.6287
lfoot -13.9354 0.23074
ltoes -2.92657
2023
root 6.44265 18.0005 6.92435 -176.827 7.69365 182.217
lowerback -1.78938 1.41474 -2.07264
upperback 1.27472 2.02784 -1.63759
thorax 2.29933 1.01266 -0.442647
lowerneck -12.2198 -3.56021 -13.2499
upperneck 19.6162 -1.64696 1.12436
head 8.32057 -1.38359 2.41169
rclavicle -1.61016e-014 -3.97569e-015
rhumerus -10.6243 6.48167 -81.9894
rradius 102.352
rwrist -21.9904
rhand -24.4358 27.6315
rfingers 7.12502
rthumb 2.05651 -2.33836
lclavicle -1.61016e-014 -3.97569e-015
lhumerus 0.150097 -5.47094 74.8289
lradius 97.1685
lwrist 15.984
lhand -2.188 35.3931
lfingers 7.12502
lthumb 23.4931 63.9786
rfemur -2.10706 3.14158 12.0367
rtibia 11.5776
rfoot -7.87001 -10.4653
rtoes -6.19713
lfemur -8.27907 2.92178 -22.9697
ltibia 23.5083
lfoot -13.8301 0.803158
ltoes -0.950106
2024
root 6.43626 17.993 6.92664 -176.85 7.68733 182.062
lowerback -1.5877 1.29787 -2.27458
upperback 1.18037 1.86514 -1.58511
thorax 2.08197 0.929501 -0.288534
lowerneck -12.6853 -3.51385 -13.35
upperneck 19.8964 -1.45811 1.06558
head 8.48884 -1.31625 2.42835
rclavicle -1.30204e-014 3.49861e-014
rhumerus -10.4856 6.8338 -81.9694
rradius 101.516
rwrist -21.6346
rhand -24.4474 26.9262
rfingers 7.12502
rthumb 2.04526 -3.04371
lclavicle -1.30204e-014 3.49861e-014
lhumerus -0.0404993 -5.0431 75.0154
lradius 96.3387
lwrist 15.0995
lhand -3.03538 35.1398
lfingers 7.12502
lthumb 22.68 63.827
rfemur -2.14959 3.1142 11.8209
rtibia 11.6519
rfoot -7.92273 -10.4057
rtoes -5.88729
lfemur -8.2397 2.70844 -23.2008
ltibia 23.3516
lfoot -13.6948 1.17903
ltoes -1.76158
2025
root 6.42633 17.9893 6.92701 -176.827 7.36524 181.985
lowerback -1.00443 1.1496 -2.59634
upperback 0.747028 1.62549 -1.33261
thorax 1.29585 0.809559 0.123128
lowerneck -12.7062 -3.49284 -13.4734
upperneck 20.1553 -1.26062 0.698945
head 8.57333 -1.26177 2.34947
rclavicle -8.19987e-015 -1.59028e-015
rhumerus -10.8702 7.21318 -81.6328
rradius 100.549
rwrist -21.3068
rhand -24.4385 26.4414
rfingers 7.12502
rthumb 2.0539 -3.52848
lclavicle -8.19987e-015 -1.59028e-015
lhumerus -0.837988 -4.88316 75.587
lradius 95.422
lwrist 14.2015
lhand -4.06724 34.9353
lfingers 7.12502
lthumb 21.6894 63.7404
rfemur -2.17879 2.93644 11.703
rtibia 11.756
rfoot -7.99563 -10.4968
rtoes -4.91948
lfemur -8.28408 2.49043 -23.3138
ltibia 23.2825
lfoot -13.6542 1.16907
ltoes -2.15332
